<svg width="167" height="204" viewBox="0 0 167 204" fill="none" xmlns="http://www.w3.org/2000/svg">
<g clip-path="url(#clip0_638_23917)">
<path d="M163.167 140.329C161.318 138.678 158.99 137.683 157.171 135.991C154.944 133.915 153.585 130.667 153.706 127.616C153.858 123.818 156.722 121.035 159.126 118.399C159.934 117.51 160.742 116.601 161.439 115.616C161.05 110.793 156.398 105.984 150.777 106.151C150.549 106.156 150.388 105.924 150.443 105.712C151.555 101.519 147.039 101.277 144.2 100.12C143.978 100.029 143.827 99.7315 144.049 99.5396C144.918 98.787 145.761 98.4486 146.908 98.3981C147.534 98.3678 148.16 98.4436 148.782 98.388C150.115 98.2718 151.135 97.4536 152.115 96.6101C153.822 95.1404 155.343 93.4838 157.055 92.0039C159.151 90.1907 161.303 88.231 162.722 85.8168C163.596 84.3268 163.419 83.3874 162.854 81.8924C162.5 80.958 162.197 80.0286 162.268 79.0185C162.439 76.5992 164.874 75.281 166.531 73.6597C166.238 72.5384 165.869 71.4273 165.47 70.3212C164.834 68.5787 164 66.9069 162.828 65.5685C161.55 65.1644 160.247 64.9018 159.202 64.6745C156.828 64.1644 153.974 63.9421 151.64 62.9219C151.489 63.331 151.403 63.7653 151.418 64.2401C145.271 64.1391 137.882 61.8713 133.366 67.2756C132.866 67.8716 132.987 68.8918 133.846 69.0989C134.422 69.2353 134.316 70.0989 133.79 70.205C133.023 70.3616 132.689 71.5182 133.305 72.0283C134.412 72.9425 135.593 73.6142 136.922 74.0334C136.503 75.9931 136.169 78.175 135.301 79.8822C134.114 82.2308 133.24 78.9781 132.533 78.0639C130.492 75.4123 126.704 78.0892 125.229 80.0286C124.8 80.5994 125.264 81.4731 125.88 81.6297C126.38 81.8823 126.451 82.1802 126.082 82.5287C126.027 82.5995 125.981 82.6752 125.951 82.7459C125.835 82.857 125.734 82.9985 125.663 83.1803C125.476 83.6702 124.582 83.9025 124.188 84.2359C123.804 84.5591 123.431 85.0036 123.284 85.4935C123.138 85.9784 123.173 86.4936 123.421 86.9431C123.794 87.63 124.123 87.4936 124.012 88.231C123.83 89.4028 123.193 89.9331 123.916 91.1402C124.592 92.2716 124.85 92.8928 124.623 94.2414C124.496 94.9939 124.365 96.1859 123.628 96.4283C123.047 96.6202 122.279 96.2869 121.643 96.3778C120.895 96.4889 120.223 96.8223 119.612 97.2516C118.526 98.0193 116.814 100.686 115.324 99.8881C114.263 99.3224 114.283 98.0597 112.738 98.0799C111.334 98.1001 110.667 99.2214 109.652 99.8376C108.945 99.7517 108.237 99.8982 107.475 100.206C105.904 100.833 104.762 101.368 103.04 101.418C101.853 101.449 100.681 101.595 99.8477 102.53C99.4689 102.959 99.6255 103.065 99.0547 103.105C98.6456 103.136 98.1455 102.797 97.8071 102.61C97.0293 102.176 96.312 101.681 95.8978 100.873C95.4079 99.9184 95.1856 98.9991 93.8825 99.0395C92.3622 99.085 92.0844 100.656 90.8873 101.216C89.6397 101.802 88.1749 101.636 86.9576 102.368C86.6343 102.565 85.7504 103.651 85.5635 103.641C85.1847 103.621 85.1999 101.53 85.1544 101.004C85.0938 100.307 84.5028 99.7517 83.7704 99.9537C83.528 100.019 83.3512 100.07 83.1946 100.13C82.8512 99.8578 82.4673 99.6406 82.0026 99.4133C80.851 98.8527 81.1692 98.3728 81.8056 97.4435C82.2501 96.797 82.6138 96.095 82.4572 95.2869C82.2198 94.0595 80.6691 93.7413 81.9672 92.4534C82.6895 91.7312 83.6846 91.4635 84.2957 90.5897C84.912 89.7109 84.9625 88.7108 84.8615 87.6704C84.5584 84.6703 84.028 81.6701 83.6139 78.6852C83.5128 77.9578 82.5582 77.7306 82.0077 78.0336C79.1185 79.6145 76.8304 81.953 75.3202 84.8773C75.2343 85.044 75.1989 85.2056 75.1939 85.3622C74.0726 86.5441 72.9765 87.9734 73.1179 89.6806C73.1937 90.5796 73.618 91.2261 74.0322 91.9938C74.8757 93.5646 73.815 94.8323 72.7896 95.9889C72.2845 96.5596 72.4158 97.6405 73.2695 97.8122C74.9413 98.1456 74.6029 100.641 74.9666 101.893C75.2242 102.767 76.6435 104.105 76.1687 104.853C74.911 106.843 69.7489 104.681 67.8144 104.959C65.3142 105.318 64.1272 107.242 62.4149 108.843C61.4098 109.782 60.5157 109.782 59.2934 110.252C58.4953 110.555 57.8337 111.085 57.7023 111.974C57.6165 112.555 57.864 112.954 58.0004 113.485C58.263 114.505 58.2832 115.343 57.8236 116.333C57.1417 117.798 55.7577 118.747 54.4091 119.53C52.8888 120.414 51.2876 121.177 49.7218 121.985C48.5752 122.581 46.9993 123.071 46.0598 123.965C45.3931 124.601 45.2517 125.207 45.4588 126.071C45.6255 126.753 46.1205 127.116 45.9639 127.909C45.7618 128.945 44.9638 129.268 44.0243 129.415C42.711 129.617 41.423 130.268 41.125 131.369C39.7815 131.091 38.3975 129.788 37.0135 129.682C35.7862 129.591 34.8467 130.021 34.1496 131.026C33.9324 131.339 33.9577 131.814 34.1496 132.127C34.7659 133.152 35.0992 134.137 35.175 135.324C35.18 135.425 35.2002 135.516 35.2305 135.602C33.2809 136.602 30.816 135.415 28.7148 135.496C26.3762 135.581 24.2144 136.96 22.1536 137.935C21.2343 138.369 21.6081 139.647 22.4162 139.93C23.3001 140.238 24.2144 140.536 24.5326 141.546C24.6588 141.94 24.4821 142.365 24.6942 142.779C25.0882 143.551 25.9266 143.759 26.7247 143.769C28.5329 143.789 29.7704 144.031 31.3564 144.93C32.6192 145.642 34.3264 146.471 35.0336 147.794C35.7912 149.208 34.3163 150.415 35.1043 151.749C35.5538 152.511 36.5691 152.431 37.0489 153.011C37.655 153.749 36.7812 156.754 36.66 157.678C36.4226 159.492 36.2407 161.345 35.8569 163.133C35.4881 164.86 34.3365 167.497 32.0686 166.532C31.0534 166.103 30.2856 165.244 29.2148 164.896C28.0582 164.522 27.2197 164.84 26.1135 165.164C24.8558 165.532 24.3709 165.381 23.2244 164.84C22.6991 164.593 22.2041 164.376 21.6333 164.249C20.3201 163.956 19.0068 164.148 17.6936 164.3C16.1581 164.477 14.9761 164.446 13.4861 163.992C10.6979 163.148 8.06639 165.557 5.74294 166.871C5.12672 167.219 5.03075 168.093 5.5207 168.583C6.24804 169.315 6.97538 170.048 7.70777 170.78C7.54109 171.583 7.65221 172.346 8.02093 173.093C6.59655 175.048 7.44007 177.078 7.48048 179.356C7.54109 182.755 5.73284 185.856 4.09632 188.71C3.85387 189.129 3.91954 189.69 4.26805 190.033C5.13682 190.892 7.27844 191.2 7.40471 192.528C7.48048 193.316 7.01073 194.453 6.8491 195.23L6.15207 198.609C6.00054 199.337 6.46523 199.938 7.20772 199.988C9.99081 200.185 12.6173 199.231 14.6276 197.352C15.7792 197.968 16.1783 199.751 16.7187 200.842C17.3804 202.175 18.2593 203.367 19.7998 203.685C20.4362 203.817 20.906 203.498 21.1434 202.923C21.9465 200.978 24.972 201.877 26.4924 201.988C27.9016 202.089 29.2754 201.887 30.5836 201.347C32.7404 200.458 34.3668 198.847 35.3669 196.801C36.9277 196.852 38.4632 196.736 40.0138 196.478C40.8674 196.337 41.0139 195.195 40.4937 194.655C39.6148 193.73 43.0091 191.2 43.4586 190.387C43.7263 189.907 43.6152 189.144 43.0646 188.892C40.6654 187.781 43.6556 184.947 44.5243 183.831C45.0193 183.195 45.4638 182.548 45.7315 181.78C46.0194 180.952 45.873 179.785 46.5498 179.134C47.2014 178.507 48.4287 178.144 49.2268 177.75C50.1814 177.28 51.1361 176.81 52.0149 176.204C53.2423 175.361 54.3636 174.29 55.0455 172.952C55.3637 172.325 55.5809 171.674 55.682 170.977C55.8183 170.053 55.485 168.638 56.5154 168.108C57.7327 167.487 59.2176 167.987 60.44 167.169C60.8744 166.876 61.2835 166.022 61.7229 165.866C61.7381 165.86 61.7482 165.866 61.7633 165.855C61.8391 165.977 61.9452 166.083 62.0815 166.179C64.1373 167.593 66.5517 168.765 68.9357 167.396C70.2591 166.638 71.0925 165.477 72.6886 165.239C73.714 165.088 74.7039 165.062 75.5374 164.355C76.6486 163.416 76.7294 161.689 78.4568 161.633C79.0023 161.618 79.659 161.83 80.1691 162.012C80.5732 162.158 80.9621 162.325 81.3409 162.517C81.9218 162.759 82.1339 163.153 81.9723 163.699C82.2501 164.583 82.3158 165.224 82.9926 165.946C83.6947 166.694 84.6645 167.133 85.3716 167.871C86.1747 168.714 85.9727 169.79 86.5333 170.75C87.1344 171.78 88.2355 172.391 89.1952 173.033C91.9833 174.891 94.6502 176.911 97.1757 179.114C99.5345 181.169 102.227 183.381 104.04 185.947C105.828 188.473 103.272 191.134 103.191 193.836C103.161 194.821 104.389 195.225 105.055 194.609C106.424 193.346 107.803 192.099 109.157 190.816C109.99 190.028 111.086 189.043 111 187.771C110.904 186.407 109.172 185.907 109.51 184.482C109.662 184.063 109.864 183.674 110.126 183.316C110.283 182.689 110.606 182.518 111.086 182.79C111.687 182.816 112.743 183.624 113.288 183.897C114.45 184.482 115.364 183.139 114.612 182.184C113.521 180.795 112.248 179.598 110.768 178.629C110.03 178.144 109.248 177.745 108.439 177.391C107.889 177.154 105.242 176.23 106.328 175.29C106.975 174.73 106.586 173.689 105.848 173.467C103.585 172.78 101.247 172.088 99.3022 170.689C97.3323 169.27 96.5646 167.547 96.1302 165.244C95.7867 163.411 94.9786 162.648 93.3724 161.83C90.7307 160.487 91.3267 157.825 92.0591 155.441C92.0591 155.441 92.0641 155.441 92.0692 155.441C93.1198 154.906 94.1704 154.37 95.221 153.835C95.3826 154.562 95.3473 155.289 95.1402 156.072C94.9887 156.638 95.3271 157.259 95.9029 157.416C96.8525 157.673 97.7819 157.749 98.7062 157.638C98.6254 158.946 98.9284 160.244 100.201 160.956C100.509 161.128 100.853 161.173 101.181 161.264C101.934 161.466 102.282 161.598 102.833 162.179C103.51 162.891 104.151 163.472 105.005 163.987C107.207 165.315 109.374 166.557 111.344 168.244C113.122 169.77 114.586 171.911 116.622 173.103C117.385 173.553 118.259 173.805 119.147 173.775C119.451 173.765 120.425 173.507 120.491 174.083C120.521 174.346 119.567 175.169 119.375 175.472C118.774 176.427 118.991 176.957 119.011 177.982C119.031 178.972 118.223 179.598 118.228 180.578C118.243 182.29 120.006 182.654 120.582 183.988C120.966 184.876 120.127 185.871 120.334 186.866C120.521 187.74 121.153 188.372 121.835 188.902C122.941 189.76 124.062 190.457 124.83 191.675C125.31 192.432 125.577 193.023 125.35 193.877C125.249 194.256 124.961 194.564 124.981 195.003C125.027 196.114 126.118 196.73 126.901 197.321C128.265 198.362 129.633 199.397 130.997 200.438C131.462 200.791 132.23 200.513 132.492 200.044C133.321 198.574 133.629 197.018 133.391 195.422C134.816 195.2 136.179 194.67 136.851 193.266C137.791 191.301 136.674 189.18 135.381 187.7C134.543 186.745 133.043 185.654 132.886 184.291C132.664 182.366 134.336 182.412 135.72 182.028C137.018 181.669 138.276 180.664 138.447 179.376C139.796 179.533 141.094 180.851 142.609 180.285C143.089 180.109 143.458 179.836 143.72 179.497C144.786 180.144 145.983 180.543 147.226 180.058C148.039 179.745 148.499 179.093 149.155 178.563C150.337 177.603 151.746 177.477 153.156 177.957C154.434 178.386 154.898 176.654 153.999 175.962C152.969 175.174 151.943 174.386 150.913 173.603C150.711 173.452 149.453 172.709 149.261 172.366C149.352 172.467 149.686 172.184 149.888 172.068C151.443 171.159 151.837 169.81 152.337 168.164C152.711 166.951 153.257 166.361 154.257 165.608C154.898 165.128 155.464 164.623 155.767 163.865C156.04 163.184 156.015 162.466 155.843 161.759C155.621 160.85 154.742 159.759 155.595 158.997C156.616 158.082 158.313 158.466 159.106 157.098C159.485 156.446 159.055 155.754 159.288 155.209C159.434 154.865 160.53 154.633 160.889 154.38C162.833 153.022 163 150.072 164.47 148.4C164.672 148.84 164.945 149.234 165.268 149.577C165.324 149.304 165.374 149.032 165.419 148.759C165.93 145.637 165.611 142.516 163.147 140.314L163.167 140.329Z" fill="#794C5F"/>
<path d="M71.0975 69.4985C70.6884 69.9278 70.9965 70.5945 71.5673 70.6248C71.7794 70.6349 71.8703 71.1753 71.6632 71.246C71.0369 71.4683 71.0369 72.2966 71.6632 72.5188C73.8655 73.3017 76.3808 73.9987 78.477 72.5592C79.3912 71.9279 80.0933 71.0592 80.8055 70.2258C81.4419 69.4833 82.0834 68.7409 82.7198 67.9984C82.9067 68.7661 83.2805 69.4833 83.8361 70.0844C84.3513 70.64 85.0685 70.9632 85.4372 71.6552C85.9019 72.5289 86.1141 73.6451 86.4171 74.5846C87.0131 76.4129 87.6041 78.2463 88.2001 80.0747C88.6093 81.3273 88.877 83.0344 89.8821 83.9839C90.7559 84.8072 91.9833 84.6506 92.8672 83.9334C93.3925 83.5092 93.741 82.9486 94.0997 82.3829C94.7007 81.4333 95.2866 81.1404 96.2716 80.6707C99.1607 79.2868 97.8273 76.1048 97.1909 73.7916C96.8929 72.7158 96.7817 71.5743 97.6455 70.7309C98.2061 70.1854 98.9486 69.8571 99.5345 69.3419C100.322 68.65 100.878 67.5792 100.656 66.5792C101.651 66.0085 101.999 64.6094 101.6 63.4679C101.323 62.6649 100.666 62.0386 100.095 61.4426C99.0395 60.3466 98.4789 59.2253 98.5698 57.6697C98.7213 55.0585 100.514 52.8059 102.151 50.9068C103.919 48.8562 105.788 46.8814 107.525 44.8005C108.106 44.0985 108.672 43.356 108.965 42.4873C109.424 41.1387 108.924 39.8761 108.99 38.5124C109.02 37.9012 109.172 37.2194 109.753 36.8911C110.152 36.6688 110.652 36.6739 111.056 36.4416C111.394 36.2496 111.652 35.9921 111.824 35.6385C111.889 35.5021 111.914 35.3557 111.975 35.2193C112.192 34.7243 112.293 34.6789 112.763 34.6082C113.384 34.5172 114.238 34.7748 114.874 34.8506C115.531 34.9264 116.349 34.896 116.981 35.1082C118.89 35.7446 116.809 37.8002 116.304 38.7295C115.773 39.7043 115.713 40.8306 115.162 41.7953C114.511 42.9368 113.642 43.9974 112.844 45.0379C111.975 46.1743 111.051 47.2754 110.015 48.2602C109.101 49.129 107.793 49.826 107.207 50.9876C106.742 51.9119 107.081 52.619 107.712 53.311C108.773 54.4827 108.318 55.907 107.843 57.2606C107.763 57.4879 107.864 57.7354 108.015 57.9021C108.288 58.2051 108.561 58.5081 108.833 58.8112C108.111 60.3719 109.121 62.0689 110.222 63.2609C110.874 63.9629 111.707 64.7862 112.687 64.9781C113.718 65.1801 114.758 64.6044 115.662 64.1902C117.001 63.5791 118.137 63.1194 119.602 63.5841C120.592 63.9023 121.547 64.2357 122.552 63.7912C123.456 63.3922 124.012 62.382 125.032 62.2558C125.522 62.1952 125.997 62.3214 126.401 62.5639C128.032 61.6295 129.648 60.6597 131.179 59.5637C132.921 58.3213 134.513 56.902 135.987 55.3514C137.346 53.9221 138.75 52.3513 139.493 50.4876C140.134 48.8764 140.048 47.0582 140.533 45.4015C140.821 44.4116 141.2 43.452 141.579 42.4923C141.427 42.4923 141.291 42.4772 141.185 42.4216C140.528 42.0529 141.367 40.7953 141.407 40.2296C141.442 39.6791 141.291 39.2296 140.897 38.8356C140.872 38.8104 140.846 38.7902 140.816 38.77C140.831 38.7093 140.841 38.6487 140.836 38.573C140.791 37.7043 140.543 36.9517 140.079 36.2799C140.528 35.8304 140.735 35.1637 140.624 34.4869C140.538 33.9768 140.276 33.5122 139.831 33.2243C139.624 33.0879 139.356 33.0879 139.154 32.9717C138.483 32.5828 138.71 32.2444 138.68 31.6484C138.538 29.0726 135.649 29.416 134.3 27.9968C135.048 27.724 136.518 28.6887 136.993 28.9312C138.084 29.4867 139.18 30.0373 140.301 30.5221C142.342 31.4111 144.483 32.1333 146.721 32.2747C150.297 32.502 154.171 31.0828 155.944 27.82C156.09 27.5523 156.045 27.2392 155.843 27.0169C155.711 26.8755 155.58 26.7341 155.454 26.5927C156.535 25.7189 156.186 23.9107 154.908 23.2794C154.984 22.9511 154.949 22.5875 154.807 22.2188C154.418 21.2238 153.388 20.9561 152.474 20.6379C150.418 19.9257 149.292 18.0368 148.069 16.37C146.958 14.8548 145.695 13.38 143.832 12.8194C141.518 12.1224 139.084 13.0113 136.77 12.5214C137.058 11.6628 136.988 10.7789 136.599 9.88996C136.442 9.52631 135.806 9.44549 135.558 9.75359C135.28 10.1071 135.013 8.85456 134.977 8.78385C134.886 8.59698 134.8 8.46061 134.634 8.31919C134.295 8.03635 133.861 7.99089 133.437 8.0717C132.856 8.18282 132.391 8.55152 131.891 8.83436C131.073 9.29397 130.209 9.28892 129.396 8.85961C129.35 8.77375 129.29 8.69799 129.199 8.62728C128.497 8.08685 127.79 7.54138 127.088 7.00095C128.067 6.80397 129.073 6.60194 129.936 6.22314C130.603 5.9302 131.007 5.24835 130.603 4.5564C130.083 3.66748 128.916 3.66243 128.123 3.18766C127.047 2.54117 126.785 1.19263 125.739 0.505729C123.9 -0.701392 121.516 0.429968 119.915 1.52092C119.117 2.0664 118.344 2.65228 118.516 3.71798C118.627 4.40993 118.86 4.77358 118.132 5.19279C117.895 5.32916 117.627 5.42007 117.354 5.48573C117.541 4.71298 117.496 3.91496 117.198 3.122C117.031 2.68764 116.455 2.4351 116.092 2.82906C114.703 4.34427 112.98 5.2635 110.955 5.6221C109.495 5.87969 108.076 6.07667 107.192 7.38985C107 7.67774 107.126 8.12221 107.419 8.28888C106.965 8.36969 106.515 8.4505 106.06 8.52627C105.232 8.67274 104.318 8.73334 103.762 9.45055C103.287 10.0617 103.262 10.8849 102.737 11.4708C102.196 12.0769 101.429 12.4355 100.762 12.88C100.211 13.2436 99.681 13.6477 99.287 14.178C98.7011 14.9659 98.5445 15.9458 98.0596 16.7892C97.1202 18.4105 95.3776 19.4358 94.1552 20.8248C91.756 23.5471 90.4781 26.9866 89.1649 30.31C88.4779 32.0525 87.7708 33.795 86.8566 35.4365C85.806 37.3204 84.4523 38.9821 83.0532 40.6135C81.644 42.2549 80.1893 43.8813 78.9922 45.6844C77.8658 47.3814 76.5526 51.1038 73.8806 50.1391C73.6028 50.0381 73.2795 50.2048 73.1331 50.4422C72.8249 50.9371 72.7593 51.5028 72.931 52.0028C71.9814 52.3968 71.0521 52.9978 70.7844 54.008C70.7086 54.2958 70.7187 54.5736 70.7439 54.8666C70.8046 55.1949 70.8753 55.5181 70.9561 55.8414C70.8904 56.1343 70.7743 56.407 70.6177 56.6646C70.249 57.4778 69.8954 58.2607 69.7136 59.1445C69.3549 60.8719 69.4408 62.7103 70.0419 64.372C70.5318 65.7307 72.3704 68.155 71.1076 69.4884L71.0975 69.4985Z" fill="#794C5F"/>
<path d="M79.8105 169.593C79.8863 168.765 79.0782 167.901 78.2447 168.518C77.5982 168.992 76.9517 169.467 76.3102 169.942C75.8051 170.316 74.9717 170.735 74.7242 171.351C74.4868 171.947 74.7242 172.437 75.0475 172.922C75.497 173.599 75.795 174.154 75.8354 174.987C75.8708 175.679 76.5072 176.245 77.2194 176.038C78.2953 175.725 79.0428 174.947 79.4317 173.907C79.9065 172.639 79.6085 171.311 79.8156 170.007C79.8409 169.856 79.8308 169.72 79.8055 169.593H79.8105Z" fill="#794C5F"/>
<path d="M80.9672 179.836C80.846 178.699 80.5025 177.462 79.3257 176.997C78.6892 176.745 76.7547 176.972 76.7648 177.836C76.7295 177.841 76.6941 177.856 76.6638 177.866C76.6638 177.866 76.6587 177.861 76.6537 177.856C76.3506 177.502 75.8961 177.492 75.5172 177.689C75.0576 177.725 74.6333 178.028 74.5121 178.487C74.1636 179.77 74.4666 180.881 75.0323 182.053C75.5223 183.068 76.0223 183.962 75.694 185.119C75.4768 185.892 74.9212 186.508 74.8606 187.326C74.6838 189.836 77.8861 190.16 79.3863 188.786C81.6087 186.75 81.2652 182.533 80.9773 179.841L80.9672 179.836Z" fill="#794C5F"/>
<path d="M102.201 196.802C101.07 196.049 100.59 194.822 100.898 193.498C101.035 192.923 100.701 192.317 100.146 192.16C99.974 191.897 99.7012 191.695 99.3224 191.645C96.1403 191.221 93.0036 191.458 89.9124 192.317C89.2912 192.488 89.079 193.029 89.1598 193.524C89.1144 193.599 89.074 193.675 89.0437 193.761C88.5992 194.903 89.5235 195.625 90.5387 195.877C91.4833 196.11 92.4632 196.024 93.3925 196.342C94.2765 196.645 95.0998 197.165 95.9635 197.519C97.792 198.266 99.681 198.66 101.641 198.837C102.797 198.943 103.02 197.347 102.191 196.802H102.201Z" fill="#794C5F"/>
<path d="M56.667 183.593C56.0962 183.427 55.5204 183.26 54.9446 183.093C54.4193 182.942 54.0152 183.164 53.793 183.518C53.6061 183.548 53.4242 183.624 53.2475 183.77C52.707 184.22 52.2625 184.735 51.8534 185.3C51.3836 185.952 52.01 187.008 52.7979 186.942C53.2273 186.907 53.5455 186.987 53.7829 187.371C54.192 188.028 54.9395 188.023 55.5002 187.593C56.4043 186.891 57.0054 185.992 57.4297 184.942C57.657 184.391 57.1822 183.75 56.667 183.598V183.593Z" fill="#794C5F"/>
<path d="M59.9601 182.442C59.3692 182.468 58.8691 182.922 58.8691 183.533V183.715C58.8691 184.286 59.3742 184.831 59.9601 184.806C60.5511 184.781 61.0512 184.326 61.0512 183.715V183.533C61.0512 182.962 60.5461 182.417 59.9601 182.442Z" fill="#794C5F"/>
<path d="M49.5348 188.67C49.2368 188.18 48.5398 187.952 48.0397 188.276C47.868 188.387 47.7367 188.538 47.6407 188.705C47.6054 188.745 47.57 188.786 47.5346 188.821C47.4993 188.856 47.4639 188.892 47.4286 188.922C47.3983 188.947 47.2316 189.074 47.368 188.978C47.3831 188.968 47.3932 188.963 47.3983 188.957C47.373 188.973 47.3427 188.998 47.3276 189.003C47.2871 189.033 47.2467 189.058 47.2063 189.084C47.1104 189.144 47.0144 189.195 46.9184 189.245C46.4032 189.508 46.2264 190.261 46.5245 190.74C47.0397 191.564 48.1913 191.846 49.0146 191.286C49.8682 190.71 50.0652 189.523 49.5348 188.659V188.67Z" fill="#794C5F"/>
<path d="M48.7421 113.066C48.4138 110.788 46.1762 110.151 44.1103 110.061C45.8378 104.505 38.3168 100.328 37.5491 95.1508C37.1703 92.5749 37.3117 89.3677 34.7812 87.797C34.0791 87.3575 33.281 87.1858 32.5234 87.2414C34.367 83.918 38.2865 81.4078 37.1046 77.0995C37.0137 76.7662 36.7056 76.3924 36.3419 76.3369C34.1851 76.0136 32.089 76.0288 29.9827 76.4126C30.2454 75.0995 31.1192 74.054 32.4678 73.4681C32.8113 73.3166 33.0032 72.8771 33.0083 72.5236C33.0436 70.2962 31.0636 69.0436 28.9725 69.2507C26.2097 69.5235 23.2649 71.17 20.9364 72.569C19.7293 73.2913 20.8304 75.1803 22.0375 74.453C22.1083 74.4075 22.2194 74.3469 22.3608 74.2661C21.4112 76.7106 19.7394 78.7208 17.4462 80.1249C16.8148 80.5138 16.6583 81.6654 17.4462 82.0088C18.0574 82.2765 18.6635 82.5392 19.2747 82.8068C18.5019 84.2412 18.6786 86.1151 19.8606 87.2818C19.2141 88.4535 18.7746 89.691 18.5473 91.0345C18.4514 91.6203 18.6938 92.2062 19.31 92.3779C22.1285 93.1659 23.467 96.2822 22.3558 98.9136C22.1133 99.4843 22.6235 100.075 23.1185 100.257C24.2953 100.681 25.154 100.232 26.3107 100.06C27.9371 99.8227 27.8916 100.924 28.0179 102.242C28.1391 103.5 28.3008 104.692 29.0584 105.52C28.129 106.131 25.9571 106.333 25.2651 106.969C24.6641 107.52 24.4115 108.278 24.5176 109.081C24.5832 109.591 24.8509 109.959 25.0176 110.434C25.356 111.399 25.0025 111.475 24.1994 112.076C22.4568 113.379 21.6638 115.288 23.2094 117.162C24.7802 119.066 27.0784 118.798 29.1645 118.091C29.5029 119.101 30.2605 119.914 31.2051 120.344C29.7807 121.268 28.0533 121.798 26.639 122.723C24.8408 123.899 23.573 125.42 23.3458 127.602C23.27 128.304 24.1034 128.849 24.7297 128.652C30.8515 126.743 37.1602 125.107 43.1708 122.869C45.0296 122.177 46.9439 121.091 47.5551 119.066C47.8531 118.081 47.8177 117.096 47.4591 116.238C48.3733 115.551 48.9087 114.243 48.737 113.061L48.7421 113.066Z" fill="#794C5F"/>
<path d="M17.8957 95.7926C16.7996 93.7976 14.3398 93.444 12.6376 94.641C12.5669 94.6714 12.4962 94.7168 12.4255 94.7673C10.1828 96.4492 7.9402 98.1311 5.70262 99.813C5.17732 100.207 4.90457 101.015 5.48038 101.525C5.8693 101.869 6.26833 102.187 6.67746 102.485C5.78849 102.843 4.84901 102.96 3.79335 102.843C2.77305 102.732 1.66184 102.475 0.772867 103.167C0.0657297 103.722 -0.176717 104.682 0.136443 105.52C0.484961 106.455 2.66193 107.53 2.4902 108.429C2.41949 108.808 1.7174 109.288 1.53556 109.687C1.35878 110.071 1.28302 110.455 1.30322 110.874C1.37393 112.273 2.31341 113.046 1.90934 114.546C1.37393 116.526 0.176851 118.657 1.80327 120.486C3.40443 122.284 6.02083 121.819 7.88464 120.789C10.7738 119.193 13.6832 117.192 16.3097 115.187C18.3048 113.667 20.0221 111.505 19.8151 108.854C19.7696 108.288 19.6383 107.768 19.4059 107.248C19.1332 106.636 18.2341 105.662 18.3452 104.995C18.517 103.95 19.7999 103.273 19.9666 102.121C20.1383 100.924 19.4312 100.364 18.7695 99.52C17.9108 98.4291 18.5826 97.025 17.9007 95.7825L17.8957 95.7926Z" fill="#794C5F"/>
</g>
<defs>
<clipPath id="clip0_638_23917">
<rect width="166.531" height="203.731" fill="white"/>
</clipPath>
</defs>
</svg>
