<svg width="447" height="546" viewBox="0 0 447 546" fill="none" xmlns="http://www.w3.org/2000/svg">
<g clip-path="url(#clip0_602_23436)">
<path d="M437.288 376.083C432.334 371.657 426.093 368.99 421.22 364.456C415.25 358.892 411.609 350.189 411.934 342.013C412.34 331.834 420.015 324.376 426.459 317.31C428.625 314.928 430.79 312.491 432.659 309.852C431.616 296.925 419.149 284.038 404.083 284.485C403.474 284.499 403.04 283.876 403.189 283.308C406.167 272.073 394.066 271.423 386.458 268.323C385.862 268.08 385.456 267.281 386.052 266.767C388.38 264.75 390.641 263.843 393.714 263.707C395.392 263.626 397.071 263.829 398.736 263.68C402.309 263.369 405.044 261.176 407.67 258.916C412.245 254.977 416.32 250.537 420.909 246.571C426.526 241.712 432.293 236.46 436.097 229.989C438.439 225.996 437.965 223.479 436.449 219.472C435.501 216.968 434.689 214.477 434.879 211.77C435.339 205.286 441.864 201.753 446.304 197.408C445.518 194.403 444.53 191.425 443.461 188.461C441.755 183.791 439.522 179.311 436.381 175.724C432.956 174.641 429.464 173.937 426.662 173.328C420.3 171.961 412.651 171.365 406.397 168.631C405.991 169.727 405.761 170.891 405.802 172.164C389.328 171.893 369.524 165.815 357.422 180.299C356.082 181.896 356.407 184.63 358.708 185.185C360.251 185.551 359.967 187.865 358.559 188.15C356.501 188.569 355.608 191.669 357.259 193.036C360.224 195.486 363.391 197.286 366.952 198.41C365.828 203.662 364.935 209.509 362.606 214.085C359.425 220.379 357.083 211.662 355.188 209.212C349.719 202.105 339.567 209.279 335.614 214.477C334.464 216.007 335.709 218.348 337.36 218.768C338.701 219.445 338.89 220.243 337.902 221.177C337.753 221.367 337.631 221.57 337.55 221.76C337.239 222.057 336.968 222.436 336.778 222.924C336.278 224.237 333.882 224.859 332.826 225.753C331.797 226.619 330.795 227.81 330.403 229.123C330.01 230.423 330.105 231.803 330.768 233.008C331.77 234.849 332.65 234.483 332.352 236.46C331.865 239.6 330.159 241.021 332.095 244.256C333.909 247.288 334.599 248.953 333.99 252.567C333.651 254.584 333.299 257.779 331.323 258.428C329.766 258.943 327.709 258.049 326.003 258.293C324 258.591 322.199 259.484 320.561 260.635C317.651 262.692 313.062 269.839 309.069 267.701C306.226 266.185 306.28 262.801 302.138 262.855C298.375 262.909 296.588 265.914 293.867 267.565C291.972 267.335 290.077 267.728 288.033 268.553C283.823 270.232 280.764 271.667 276.148 271.802C272.967 271.883 269.826 272.276 267.593 274.78C266.577 275.93 266.997 276.215 265.467 276.323C264.371 276.404 263.031 275.497 262.124 274.996C260.039 273.832 258.117 272.506 257.007 270.34C255.694 267.782 255.098 265.318 251.606 265.426C247.531 265.548 246.787 269.758 243.578 271.26C240.235 272.831 236.309 272.384 233.047 274.347C232.181 274.875 229.812 277.785 229.311 277.758C228.296 277.704 228.336 272.1 228.214 270.692C228.052 268.824 226.468 267.335 224.505 267.877C223.856 268.052 223.382 268.188 222.962 268.35C222.042 267.619 221.013 267.037 219.768 266.428C216.681 264.926 217.534 263.64 219.24 261.149C220.431 259.417 221.405 257.535 220.986 255.369C220.35 252.08 216.194 251.227 219.673 247.776C221.608 245.84 224.275 245.123 225.913 242.781C227.565 240.426 227.7 237.745 227.429 234.957C226.617 226.917 225.196 218.876 224.086 210.877C223.815 208.927 221.257 208.318 219.781 209.13C212.038 213.367 205.906 219.634 201.858 227.472C201.628 227.918 201.534 228.352 201.52 228.771C198.515 231.939 195.577 235.769 195.957 240.344C196.16 242.754 197.297 244.486 198.407 246.544C200.667 250.754 197.825 254.151 195.077 257.251C193.723 258.78 194.075 261.677 196.363 262.137C200.843 263.031 199.936 269.717 200.911 273.074C201.601 275.416 205.405 279.003 204.133 281.006C200.762 286.34 186.928 280.546 181.743 281.291C175.042 282.252 171.861 287.409 167.272 291.7C164.579 294.217 162.183 294.217 158.907 295.476C156.768 296.288 154.995 297.71 154.643 300.092C154.412 301.649 155.076 302.718 155.441 304.139C156.145 306.874 156.199 309.121 154.967 311.774C153.14 315.699 149.431 318.244 145.817 320.342C141.742 322.711 137.451 324.755 133.255 326.92C130.182 328.518 125.958 329.831 123.441 332.226C121.654 333.932 121.275 335.556 121.83 337.871C122.276 339.698 123.603 340.673 123.183 342.798C122.642 345.573 120.503 346.439 117.985 346.832C114.466 347.373 111.014 349.119 110.215 352.07C106.615 351.326 102.905 347.833 99.1964 347.549C95.907 347.306 93.3892 348.456 91.5212 351.15C90.9391 351.989 91.0068 353.261 91.5212 354.101C93.1726 356.848 94.066 359.488 94.2691 362.669C94.2826 362.94 94.3368 363.183 94.418 363.413C89.1929 366.093 82.587 362.912 76.9557 363.129C70.6882 363.359 64.8945 367.055 59.3716 369.667C56.9079 370.831 57.9096 374.256 60.0755 375.014C62.4444 375.839 64.8945 376.638 65.7474 379.345C66.0858 380.401 65.612 381.538 66.1805 382.648C67.2364 384.719 69.4835 385.274 71.6223 385.301C76.4684 385.355 79.7849 386.005 84.0354 388.414C87.4196 390.323 91.9949 392.543 93.8901 396.089C95.9206 399.879 91.9679 403.114 94.0796 406.688C95.2843 408.732 98.0052 408.515 99.2912 410.072C100.916 412.048 98.5738 420.102 98.2489 422.579C97.6127 427.438 97.1253 432.406 96.0965 437.198C95.1084 441.827 92.022 448.893 85.9441 446.308C83.2232 445.157 81.1656 442.856 78.2958 441.922C75.1959 440.92 72.9489 441.773 69.9843 442.639C66.6137 443.627 65.3142 443.221 62.2414 441.773C60.8335 441.11 59.507 440.528 57.9773 440.189C54.4578 439.404 50.9382 439.919 47.4187 440.325C43.3036 440.798 40.136 440.717 36.1427 439.499C28.6704 437.238 21.6178 443.695 15.391 447.214C13.7395 448.148 13.4823 450.49 14.7954 451.803C16.7446 453.766 18.6939 455.729 20.6567 457.691C20.21 459.844 20.5078 461.887 21.496 463.891C17.6787 469.129 19.9393 474.571 20.0476 480.675C20.21 489.785 15.3639 498.096 10.978 505.744C10.3283 506.867 10.5042 508.37 11.4383 509.29C13.7666 511.591 19.5061 512.417 19.8445 515.977C20.0476 518.089 18.7887 521.134 18.3555 523.219L16.4874 532.274C16.0813 534.224 17.3267 535.834 19.3166 535.97C26.7753 536.498 33.8144 533.939 39.202 528.904C42.2883 530.555 43.3577 535.334 44.8061 538.257C46.5794 541.831 48.9348 545.025 53.0635 545.878C54.7691 546.23 56.028 545.377 56.6643 543.834C58.8166 538.623 66.925 541.032 70.9996 541.33C74.7763 541.601 78.4583 541.059 81.9643 539.611C87.7444 537.229 92.1032 532.911 94.7835 527.429C98.9663 527.564 103.081 527.253 107.237 526.562C109.525 526.183 109.917 523.124 108.523 521.676C106.168 519.199 115.264 512.417 116.469 510.238C117.187 508.952 116.889 506.908 115.413 506.231C108.983 503.253 116.997 495.66 119.325 492.668C120.652 490.963 121.843 489.23 122.561 487.173C123.332 484.953 122.94 481.826 124.754 480.08C126.5 478.401 129.789 477.427 131.928 476.371C134.487 475.112 137.045 473.853 139.4 472.229C142.69 469.968 145.695 467.099 147.522 463.512C148.375 461.833 148.957 460.087 149.228 458.219C149.593 455.742 148.7 451.952 151.462 450.531C154.724 448.866 158.704 450.206 161.979 448.013C163.144 447.228 164.24 444.94 165.418 444.521C165.458 444.507 165.485 444.521 165.526 444.494C165.729 444.819 166.013 445.103 166.379 445.36C171.888 449.15 178.359 452.29 184.748 448.622C188.295 446.592 190.528 443.479 194.806 442.842C197.554 442.436 200.207 442.369 202.441 440.474C205.419 437.956 205.635 433.327 210.265 433.178C211.727 433.137 213.486 433.706 214.854 434.193C215.937 434.585 216.979 435.032 217.994 435.546C219.551 436.196 220.119 437.252 219.686 438.714C220.431 441.083 220.607 442.802 222.421 444.737C224.302 446.741 226.901 447.918 228.796 449.895C230.949 452.155 230.407 455.038 231.91 457.61C233.521 460.371 236.472 462.009 239.044 463.728C246.516 468.71 253.663 474.124 260.432 480.026C266.753 485.535 273.968 491.464 278.828 498.34C283.62 505.108 276.77 512.241 276.554 519.483C276.473 522.122 279.762 523.205 281.549 521.554C285.217 518.17 288.913 514.827 292.541 511.388C294.774 509.277 297.712 506.637 297.481 503.226C297.224 499.572 292.581 498.231 293.488 494.414C293.894 493.291 294.436 492.249 295.14 491.288C295.559 489.609 296.426 489.149 297.712 489.88C299.322 489.947 302.152 492.113 303.614 492.844C306.727 494.414 309.177 490.814 307.16 488.255C304.236 484.533 300.825 481.325 296.859 478.726C294.882 477.427 292.784 476.357 290.618 475.41C289.143 474.774 282.05 472.297 284.96 469.779C286.693 468.276 285.65 465.488 283.674 464.892C277.61 463.052 271.342 461.197 266.131 457.448C260.851 453.644 258.794 449.028 257.63 442.856C256.709 437.942 254.543 435.898 250.239 433.706C243.159 430.105 244.756 422.972 246.719 416.583C246.719 416.583 246.733 416.583 246.746 416.583C249.562 415.148 252.377 413.713 255.193 412.278C255.626 414.227 255.531 416.176 254.976 418.275C254.57 419.791 255.477 421.456 257.02 421.875C259.565 422.565 262.056 422.768 264.533 422.471C264.317 425.977 265.129 429.455 268.54 431.364C269.366 431.824 270.286 431.946 271.166 432.19C273.183 432.731 274.117 433.083 275.593 434.64C277.407 436.548 279.126 438.105 281.413 439.485C287.315 443.045 293.123 446.375 298.402 450.896C303.167 454.984 307.092 460.723 312.548 463.918C314.592 465.123 316.934 465.799 319.316 465.718C320.128 465.691 322.741 465.001 322.917 466.544C322.998 467.248 320.44 469.454 319.925 470.266C318.314 472.824 318.896 474.246 318.951 476.994C319.005 479.647 316.839 481.325 316.852 483.951C316.893 488.54 321.617 489.514 323.161 493.088C324.189 495.47 321.942 498.137 322.497 500.803C322.998 503.145 324.69 504.837 326.518 506.258C329.482 508.559 332.487 510.427 334.545 513.69C335.831 515.72 336.548 517.304 335.939 519.591C335.668 520.606 334.897 521.432 334.951 522.61C335.073 525.588 337.997 527.239 340.095 528.823C343.75 531.611 347.418 534.386 351.073 537.174C352.319 538.122 354.376 537.377 355.08 536.119C357.3 532.18 358.126 528.011 357.489 523.733C361.307 523.138 364.962 521.716 366.762 517.953C369.28 512.688 366.288 507.003 362.823 503.037C360.576 500.478 356.555 497.555 356.136 493.9C355.54 488.743 360.021 488.865 363.73 487.836C367.209 486.875 370.579 484.181 371.04 480.729C374.654 481.149 378.133 484.682 382.194 483.166C383.48 482.692 384.468 481.961 385.172 481.054C388.028 482.787 391.236 483.856 394.566 482.557C396.746 481.718 397.978 479.971 399.737 478.55C402.905 475.978 406.682 475.64 410.458 476.926C413.883 478.076 415.129 473.434 412.719 471.579C409.958 469.468 407.21 467.356 404.448 465.258C403.907 464.852 400.536 462.862 400.022 461.942C400.265 462.212 401.159 461.454 401.7 461.143C405.87 458.706 406.925 455.092 408.266 450.68C409.267 447.431 410.729 445.847 413.409 443.83C415.129 442.545 416.645 441.191 417.457 439.161C418.188 437.333 418.12 435.411 417.66 433.516C417.064 431.08 414.709 428.156 416.997 426.112C419.731 423.662 424.279 424.691 426.405 421.022C427.42 419.276 426.269 417.422 426.892 415.96C427.284 415.039 430.222 414.417 431.183 413.74C436.395 410.099 436.841 402.194 440.781 397.713C441.322 398.891 442.053 399.947 442.919 400.867C443.068 400.136 443.204 399.405 443.325 398.674C444.693 390.309 443.84 381.944 437.234 376.042L437.288 376.083Z" fill="#490320"/>
<path d="M190.542 186.255C189.445 187.405 190.271 189.192 191.801 189.273C192.369 189.3 192.613 190.749 192.058 190.938C190.379 191.534 190.379 193.754 192.058 194.349C197.96 196.447 204.701 198.315 210.319 194.457C212.769 192.765 214.651 190.437 216.559 188.204C218.265 186.214 219.984 184.224 221.69 182.234C222.191 184.292 223.192 186.214 224.681 187.825C226.062 189.314 227.984 190.18 228.972 192.034C230.218 194.376 230.786 197.368 231.599 199.885C233.196 204.785 234.78 209.699 236.377 214.599C237.474 217.956 238.191 222.531 240.885 225.076C243.227 227.282 246.516 226.863 248.885 224.94C250.293 223.803 251.227 222.301 252.188 220.785C253.799 218.24 255.369 217.455 258.009 216.196C265.752 212.487 262.178 203.96 260.472 197.76C259.674 194.877 259.376 191.818 261.691 189.557C263.193 188.096 265.183 187.216 266.753 185.835C268.865 183.981 270.354 181.111 269.758 178.431C272.425 176.901 273.359 173.152 272.29 170.093C271.545 167.94 269.786 166.262 268.256 164.665C265.427 161.727 263.924 158.723 264.168 154.553C264.574 147.555 269.379 141.518 273.765 136.429C278.503 130.933 283.512 125.641 288.168 120.064C289.725 118.182 291.241 116.193 292.026 113.864C293.258 110.25 291.918 106.866 292.094 103.212C292.175 101.574 292.581 99.7463 294.138 98.8665C295.207 98.2709 296.548 98.2844 297.63 97.6618C298.537 97.1474 299.228 96.4571 299.688 95.5096C299.864 95.1441 299.932 94.7516 300.094 94.3861C300.676 93.0596 300.947 92.9377 302.206 92.7482C303.871 92.5046 306.159 93.1949 307.864 93.398C309.624 93.601 311.817 93.5198 313.509 94.0883C318.626 95.7938 313.049 101.303 311.695 103.794C310.274 106.406 310.111 109.425 308.636 112.01C306.89 115.069 304.561 117.912 302.422 120.7C300.094 123.746 297.617 126.696 294.842 129.336C292.392 131.664 288.886 133.532 287.316 136.645C286.07 139.122 286.977 141.017 288.669 142.872C291.512 146.012 290.294 149.829 289.021 153.457C288.805 154.066 289.075 154.729 289.481 155.176C290.212 155.988 290.943 156.8 291.674 157.613C289.739 161.795 292.446 166.343 295.397 169.538C297.143 171.419 299.377 173.626 302.003 174.14C304.764 174.681 307.553 173.138 309.976 172.028C313.563 170.39 316.609 169.159 320.534 170.404C323.188 171.257 325.746 172.15 328.44 170.959C330.863 169.89 332.352 167.182 335.086 166.844C336.399 166.682 337.672 167.02 338.755 167.67C343.127 165.166 347.459 162.567 351.561 159.629C356.231 156.3 360.495 152.496 364.447 148.34C368.089 144.51 371.852 140.3 373.842 135.305C375.561 130.987 375.331 126.114 376.63 121.675C377.402 119.022 378.417 116.45 379.432 113.878C379.026 113.878 378.661 113.837 378.377 113.688C376.617 112.7 378.864 109.33 378.972 107.814C379.067 106.338 378.661 105.134 377.605 104.078C377.537 104.01 377.47 103.956 377.388 103.902C377.429 103.739 377.456 103.577 377.443 103.374C377.321 101.046 376.657 99.0289 375.412 97.2286C376.617 96.0239 377.172 94.2372 376.874 92.4234C376.644 91.0562 375.94 89.8109 374.749 89.0394C374.194 88.6739 373.476 88.6739 372.935 88.3626C371.135 87.3203 371.744 86.4134 371.662 84.8161C371.283 77.9128 363.54 78.8333 359.926 75.0297C361.93 74.2987 365.869 76.8841 367.141 77.5338C370.065 79.0228 373.003 80.4982 376.008 81.7976C381.477 84.18 387.216 86.1156 393.213 86.4946C402.797 87.1037 413.179 83.3001 417.931 74.5559C418.323 73.8385 418.201 72.9993 417.66 72.4037C417.308 72.0247 416.956 71.6457 416.618 71.2667C419.515 68.9249 418.581 64.0791 415.156 62.3871C415.359 61.5072 415.264 60.5326 414.885 59.5445C413.843 56.8779 411.081 56.1605 408.631 55.3078C403.122 53.3992 400.103 48.3367 396.827 43.8699C393.849 39.8091 390.465 35.8566 385.47 34.3541C379.27 32.4861 372.745 34.8685 366.546 33.5555C367.317 31.2544 367.128 28.8856 366.085 26.5032C365.666 25.5287 363.96 25.3121 363.297 26.1378C362.552 27.0853 361.835 23.7284 361.74 23.5389C361.496 23.038 361.266 22.6726 360.82 22.2936C359.913 21.5355 358.748 21.4137 357.611 21.6303C356.055 21.9281 354.809 22.9162 353.469 23.6742C351.276 24.906 348.961 24.8925 346.782 23.7419C346.66 23.5118 346.498 23.3088 346.254 23.1192C344.373 21.6709 342.477 20.209 340.596 18.7607C343.222 18.2328 345.916 17.6913 348.23 16.6761C350.017 15.891 351.1 14.0637 350.017 12.2093C348.623 9.82694 345.496 9.8134 343.371 8.54102C340.488 6.80842 339.784 3.19432 336.982 1.35343C332.054 -1.88167 325.665 1.15039 321.374 4.07415C319.235 5.53604 317.164 7.10621 317.624 9.9623C317.922 11.8167 318.545 12.7913 316.595 13.9148C315.959 14.2803 315.242 14.5239 314.511 14.6999C315.012 12.6289 314.89 10.4902 314.091 8.36505C313.644 7.20096 312.101 6.52416 311.126 7.57997C307.404 11.6408 302.788 14.1043 297.36 15.0654C293.448 15.7557 289.644 16.2836 287.275 19.8029C286.761 20.5745 287.099 21.7657 287.884 22.2123C286.666 22.4289 285.461 22.6455 284.243 22.8485C282.023 23.2411 279.573 23.4035 278.084 25.3256C276.811 26.9635 276.743 29.1698 275.336 30.74C273.887 32.3643 271.83 33.3254 270.043 34.5165C268.567 35.4911 267.146 36.574 266.09 37.9953C264.52 40.1069 264.1 42.7329 262.801 44.9934C260.283 49.3384 255.613 52.0862 252.337 55.8086C245.907 63.1045 242.482 72.3225 238.963 81.2291C237.122 85.899 235.226 90.5689 232.776 94.9681C229.961 100.017 226.333 104.47 222.583 108.842C218.806 113.242 214.908 117.6 211.7 122.433C208.681 126.981 205.162 136.957 198.001 134.371C197.256 134.101 196.39 134.547 195.997 135.183C195.171 136.51 194.995 138.026 195.456 139.366C192.911 140.422 190.42 142.033 189.703 144.74C189.5 145.511 189.527 146.256 189.594 147.041C189.757 147.921 189.946 148.787 190.163 149.653C189.987 150.438 189.676 151.169 189.256 151.86C188.268 154.039 187.32 156.137 186.833 158.506C185.872 163.135 186.102 168.062 187.713 172.516C189.026 176.157 193.953 182.654 190.569 186.228L190.542 186.255Z" fill="#490320"/>
<path d="M213.893 454.51C214.096 452.291 211.93 449.976 209.697 451.627C207.964 452.9 206.231 454.172 204.512 455.444C203.158 456.446 200.925 457.57 200.261 459.221C199.625 460.818 200.261 462.131 201.128 463.431C202.333 465.244 203.131 466.733 203.24 468.967C203.334 470.821 205.04 472.337 206.949 471.782C209.832 470.943 211.835 468.859 212.878 466.07C214.15 462.673 213.351 459.113 213.906 455.62C213.974 455.214 213.947 454.849 213.879 454.51H213.893Z" fill="#490320"/>
<path d="M216.993 481.961C216.668 478.916 215.747 475.6 212.593 474.354C210.888 473.677 205.703 474.287 205.73 476.601C205.635 476.615 205.541 476.655 205.46 476.682C205.46 476.682 205.446 476.669 205.432 476.655C204.62 475.708 203.402 475.681 202.387 476.209C201.155 476.303 200.018 477.116 199.693 478.347C198.759 481.785 199.571 484.763 201.087 487.904C202.4 490.624 203.74 493.02 202.86 496.12C202.278 498.191 200.789 499.842 200.627 502.035C200.153 508.763 208.735 509.629 212.756 505.947C218.712 500.492 217.791 489.19 217.02 481.975L216.993 481.961Z" fill="#490320"/>
<path d="M273.901 527.429C270.869 525.412 269.583 522.123 270.408 518.576C270.774 517.033 269.88 515.409 268.391 514.989C267.931 514.285 267.2 513.744 266.185 513.609C257.657 512.472 249.251 513.108 240.966 515.409C239.301 515.869 238.733 517.317 238.949 518.644C238.827 518.847 238.719 519.05 238.638 519.28C237.447 522.339 239.924 524.275 242.645 524.952C245.176 525.574 247.802 525.344 250.293 526.197C252.662 527.009 254.868 528.403 257.183 529.351C262.083 531.354 267.146 532.41 272.398 532.884C275.498 533.168 276.094 528.891 273.874 527.429H273.901Z" fill="#490320"/>
<path d="M151.868 492.032C150.338 491.585 148.795 491.139 147.252 490.692C145.844 490.286 144.761 490.881 144.165 491.829C143.664 491.91 143.177 492.113 142.703 492.506C141.255 493.711 140.064 495.091 138.967 496.607C137.708 498.353 139.387 501.182 141.498 501.006C142.649 500.912 143.502 501.128 144.138 502.157C145.235 503.917 147.238 503.903 148.741 502.753C151.164 500.871 152.775 498.462 153.912 495.646C154.521 494.171 153.248 492.452 151.868 492.046V492.032Z" fill="#490320"/>
<path d="M160.694 488.946C159.11 489.014 157.77 490.232 157.77 491.87V492.357C157.77 493.887 159.124 495.349 160.694 495.281C162.278 495.213 163.618 493.995 163.618 492.357V491.87C163.618 490.34 162.264 488.878 160.694 488.946Z" fill="#490320"/>
<path d="M132.754 505.636C131.955 504.323 130.087 503.714 128.747 504.58C128.287 504.878 127.935 505.284 127.678 505.731C127.583 505.839 127.488 505.947 127.393 506.042C127.299 506.137 127.204 506.231 127.109 506.313C127.028 506.38 126.581 506.719 126.947 506.461C126.987 506.434 127.014 506.421 127.028 506.407C126.96 506.448 126.879 506.516 126.838 506.529C126.73 506.61 126.622 506.678 126.513 506.746C126.256 506.908 125.999 507.044 125.742 507.179C124.361 507.883 123.887 509.9 124.686 511.186C126.067 513.392 129.153 514.15 131.36 512.647C133.647 511.104 134.175 507.923 132.754 505.609V505.636Z" fill="#490320"/>
<path d="M130.629 303.016C129.749 296.911 123.752 295.206 118.215 294.962C122.845 280.073 102.689 268.878 100.631 255.004C99.6161 248.101 99.9951 239.505 93.2133 235.296C91.3317 234.118 89.1929 233.658 87.1624 233.807C92.1033 224.9 102.608 218.173 99.4401 206.627C99.1965 205.733 98.3707 204.732 97.3961 204.583C91.6159 203.716 85.9982 203.757 80.3534 204.786C81.0573 201.266 83.3992 198.464 87.0135 196.894C87.934 196.488 88.4484 195.311 88.4619 194.363C88.5567 188.394 83.2503 185.037 77.6461 185.592C70.2416 186.323 62.3497 190.735 56.1093 194.485C52.874 196.421 55.825 201.483 59.0603 199.534C59.2498 199.412 59.5476 199.25 59.9266 199.033C57.3817 205.584 52.9011 210.972 46.7554 214.735C45.0634 215.777 44.6437 218.863 46.7554 219.784C48.3934 220.501 50.0178 221.205 51.6557 221.922C49.5846 225.766 50.0584 230.788 53.226 233.915C51.4933 237.055 50.3156 240.372 49.7064 243.972C49.4492 245.543 50.099 247.113 51.7505 247.573C59.3039 249.685 62.8911 258.036 59.9131 265.088C59.2633 266.618 60.6305 268.202 61.9571 268.689C65.1112 269.826 67.4124 268.621 70.5123 268.161C74.8711 267.525 74.7493 270.476 75.0877 274.009C75.4126 277.379 75.8457 280.574 77.8762 282.793C75.3855 284.431 69.5647 284.973 67.7102 286.678C66.0993 288.154 65.4225 290.184 65.7068 292.336C65.8827 293.703 66.6002 294.692 67.0469 295.964C67.9539 298.549 67.0063 298.752 64.854 300.363C60.1838 303.855 58.0586 308.972 62.2008 313.994C66.4107 319.097 72.5699 318.38 78.1605 316.484C79.0675 319.192 81.098 321.371 83.6293 322.522C79.812 324.999 75.1824 326.42 71.3922 328.897C66.5731 332.051 63.1754 336.125 62.5663 341.973C62.3632 343.854 64.5968 345.316 66.2753 344.788C82.6817 339.672 99.589 335.286 115.698 329.289C120.679 327.435 125.81 324.525 127.447 319.097C128.246 316.457 128.151 313.818 127.19 311.517C129.64 309.676 131.075 306.17 130.615 303.003L130.629 303.016Z" fill="#490320"/>
<path d="M47.9602 256.723C45.0228 251.377 38.4304 250.429 33.8686 253.637C33.679 253.718 33.4895 253.84 33.3 253.975C27.2897 258.483 21.2795 262.99 15.2827 267.498C13.8749 268.554 13.1439 270.719 14.6871 272.087C15.7294 273.007 16.7988 273.86 17.8953 274.658C15.5128 275.619 12.995 275.931 10.1659 275.619C7.43146 275.322 4.45339 274.631 2.07094 276.486C0.175805 277.975 -0.473955 280.547 0.365318 282.794C1.29935 285.298 7.13365 288.181 6.6734 290.59C6.48389 291.605 4.60229 292.891 4.11497 293.961C3.64119 294.989 3.43814 296.018 3.49229 297.142C3.6818 300.891 6.19962 302.962 5.11669 306.982C3.6818 312.288 0.473611 318.001 4.83242 322.901C9.12354 327.719 16.1355 326.474 21.1306 323.713C28.8735 319.435 36.6706 314.075 43.7097 308.701C49.0567 304.627 53.6592 298.834 53.1042 291.727C52.9823 290.211 52.6304 288.817 52.0077 287.423C51.2767 285.785 48.8672 283.173 49.165 281.386C49.6252 278.584 53.0635 276.77 53.5103 273.684C53.9705 270.476 52.0754 268.973 50.3021 266.713C48.0008 263.789 49.8012 260.026 47.9738 256.696L47.9602 256.723Z" fill="#490320"/>
</g>
<defs>
<clipPath id="clip0_602_23436">
<rect width="446.304" height="546" fill="white"/>
</clipPath>
</defs>
</svg>
