<svg width="32" height="32" viewBox="0 0 32 32" fill="none" xmlns="http://www.w3.org/2000/svg">
<path fill-rule="evenodd" clip-rule="evenodd" d="M20.6667 12.6667C21.0203 12.6667 21.3594 12.5262 21.6095 12.2761C21.8595 12.0261 22 11.687 22 11.3333C22 10.9797 21.8595 10.6406 21.6095 10.3905C21.3594 10.1405 21.0203 10 20.6667 10C20.313 10 19.9739 10.1405 19.7239 10.3905C19.4738 10.6406 19.3333 10.9797 19.3333 11.3333C19.3333 11.687 19.4738 12.0261 19.7239 12.2761C19.9739 12.5262 20.313 12.6667 20.6667 12.6667ZM20.6667 14.6667C21.5507 14.6667 22.3986 14.3155 23.0237 13.6904C23.6488 13.0652 24 12.2174 24 11.3333C24 10.4493 23.6488 9.60143 23.0237 8.97631C22.3986 8.35119 21.5507 8 20.6667 8C19.7826 8 18.9348 8.35119 18.3096 8.97631C17.6845 9.60143 17.3333 10.4493 17.3333 11.3333C17.3333 12.2174 17.6845 13.0652 18.3096 13.6904C18.9348 14.3155 19.7826 14.6667 20.6667 14.6667ZM17.6667 22.6667V20C17.6667 19.0275 17.2804 18.0949 16.5927 17.4073C15.9051 16.7196 14.9725 16.3333 14 16.3333H8.66667C7.69421 16.3333 6.76157 16.7196 6.07394 17.4073C5.38631 18.0949 5 19.0275 5 20V22.6667H7V20C7 19.08 7.74667 18.3333 8.66667 18.3333H14C14.92 18.3333 15.6667 19.08 15.6667 20V22.6667H17.6667ZM27 20V22.6667H25V20C25 19.08 24.2533 18.3333 23.3333 18.3333H20V16.3333H23.3333C24.3058 16.3333 25.2384 16.7196 25.9261 17.4073C26.6137 18.0949 27 19.0275 27 20ZM12.6667 11.3333C12.6667 11.687 12.5262 12.0261 12.2761 12.2761C12.0261 12.5262 11.687 12.6667 11.3333 12.6667C10.9797 12.6667 10.6406 12.5262 10.3905 12.2761C10.1405 12.0261 10 11.687 10 11.3333C10 10.9797 10.1405 10.6406 10.3905 10.3905C10.6406 10.1405 10.9797 10 11.3333 10C11.687 10 12.0261 10.1405 12.2761 10.3905C12.5262 10.6406 12.6667 10.9797 12.6667 11.3333ZM14.6667 11.3333C14.6667 12.2174 14.3155 13.0652 13.6904 13.6904C13.0652 14.3155 12.2174 14.6667 11.3333 14.6667C10.4493 14.6667 9.60143 14.3155 8.97631 13.6904C8.35119 13.0652 8 12.2174 8 11.3333C8 10.4493 8.35119 9.60143 8.97631 8.97631C9.60143 8.35119 10.4493 8 11.3333 8C12.2174 8 13.0652 8.35119 13.6904 8.97631C14.3155 9.60143 14.6667 10.4493 14.6667 11.3333Z" fill="#490320"/>
</svg>
