<svg width="28" height="28" viewBox="0 0 28 28" fill="none" xmlns="http://www.w3.org/2000/svg">
<path d="M23.3334 11.6663C23.3334 17.4915 16.8712 23.5582 14.7012 25.4318C14.499 25.5839 14.253 25.666 14 25.666C13.7471 25.666 13.501 25.5839 13.2989 25.4318C11.1289 23.5582 4.66669 17.4915 4.66669 11.6663C4.66669 9.19099 5.65002 6.81702 7.40036 5.06668C9.1507 3.31634 11.5247 2.33301 14 2.33301C16.4754 2.33301 18.8493 3.31634 20.5997 5.06668C22.35 6.81702 23.3334 9.19099 23.3334 11.6663Z" stroke="#490320" stroke-width="2" stroke-linecap="round" stroke-linejoin="round"/>
<path d="M14 15.166C15.933 15.166 17.5 13.599 17.5 11.666C17.5 9.73302 15.933 8.16602 14 8.16602C12.067 8.16602 10.5 9.73302 10.5 11.666C10.5 13.599 12.067 15.166 14 15.166Z" stroke="#490320" stroke-width="2" stroke-linecap="round" stroke-linejoin="round"/>
</svg>
