<svg width="121" height="209" viewBox="0 0 121 209" fill="none" xmlns="http://www.w3.org/2000/svg">
<path d="M1.25297 173.791C5.79596 160.616 21.3622 154.03 36.017 159.083C50.6718 164.137 58.8708 178.917 54.3278 192.092C49.7849 205.267 34.2187 211.853 19.5638 206.799C4.90898 201.746 -3.29002 186.966 1.25297 173.791ZM32.8359 30.6921C19.4732 69.4455 47.6693 96.1515 41.8401 140.608C41.8102 140.871 41.973 141.07 42.1904 141.145C42.4078 141.22 42.6657 141.177 42.8077 140.942C65.6291 102.344 104.282 98.6889 117.645 59.9355C127.679 30.8718 110.691 9.90069 89.9262 2.74074C69.1616 -4.41922 42.8588 1.62467 32.8359 30.6921Z" fill="#E30033"/>
</svg>
