<svg width="48" height="48" viewBox="0 0 48 48" fill="none" xmlns="http://www.w3.org/2000/svg">
<g clip-path="url(#clip0_482_1916)">
<path d="M36.0146 8.40063C34.4919 8.40063 33.26 9.63248 33.26 11.1552C33.26 12.6779 34.4919 13.9097 36.0146 13.9097C37.5373 13.9097 38.7691 12.6779 38.7691 11.1552C38.7691 9.63248 37.5373 8.40063 36.0146 8.40063Z" fill="#FFF8F0"/>
<path d="M23.7303 11.9424C17.3315 11.9424 12.1304 17.1435 12.1304 23.5423C12.1304 29.9411 17.3315 35.1422 23.7303 35.1422C30.129 35.1422 35.3302 29.9411 35.3302 23.5423C35.3302 17.1435 30.129 11.9424 23.7303 11.9424ZM23.7303 30.9676C19.6412 30.9676 16.305 27.6313 16.305 23.5423C16.305 19.4532 19.6412 16.117 23.7303 16.117C27.8193 16.117 31.1556 19.4532 31.1556 23.5423C31.1556 27.6313 27.8193 30.9676 23.7303 30.9676Z" fill="#FFF8F0"/>
<path d="M32.935 47.084H14.1322C6.33047 47.084 -0.0169678 40.7365 -0.0169678 32.9348V14.132C0.000141231 6.34744 6.34758 0 14.1493 0H32.9521C40.7538 0 47.1012 6.34744 47.1012 14.1491V32.9519C47.1012 40.7536 40.7538 47.1011 32.9521 47.1011L32.935 47.084ZM14.1493 4.43123C8.79417 4.43123 4.43137 8.79403 4.43137 14.1491V32.9519C4.43137 38.3071 8.79417 42.6699 14.1493 42.6699H32.9521C38.3072 42.6699 42.67 38.3071 42.67 32.9519V14.1491C42.67 8.79403 38.3072 4.43123 32.9521 4.43123H14.1493Z" fill="#FFF8F0"/>
</g>
<defs>
<clipPath id="clip0_482_1916">
<rect width="47.084" height="47.084" fill="white"/>
</clipPath>
</defs>
</svg>
