<svg width="53" height="37" viewBox="0 0 53 37" fill="none" xmlns="http://www.w3.org/2000/svg">
<g clip-path="url(#clip0_482_1922)">
<path d="M52.0456 11.4288C52.0456 5.11559 46.93 0 40.6168 0H11.4288C5.11559 0 0 5.11559 0 11.4288V25.0134C0 31.3266 5.11559 36.4422 11.4288 36.4422H40.6339C46.9471 36.4422 52.0627 31.3266 52.0627 25.0134V11.4288H52.0456ZM34.8681 19.2305L21.7798 25.7148C21.2665 25.9886 19.5214 25.6122 19.5214 25.0305V11.7368C19.5214 11.138 21.2836 10.7787 21.7969 11.0695L34.3378 17.896C34.8681 18.1869 35.4156 18.9568 34.8853 19.2476L34.8681 19.2305Z" fill="#FFF8F0"/>
</g>
<defs>
<clipPath id="clip0_482_1922">
<rect width="52.0456" height="36.4422" fill="white"/>
</clipPath>
</defs>
</svg>
